<?xml version="1.0" encoding="UTF-8"?>
<svg id="_Слой_1" data-name="Слой_1" xmlns="http://www.w3.org/2000/svg" viewBox="0 0 731.34 90.71">
  <defs>
    <style>
      .cls-1 {
        fill: #fff;
      }

      .cls-2, .cls-3 {
        fill-rule: evenodd;
      }

      .cls-2, .cls-4 {
        fill: #322f2d;
      }

      .cls-3 {
        fill: #ef7d00;
      }
    </style>
  </defs>
  <circle class="cls-1" cx="181.51" cy="46.18" r="22.26"/>
  <g>
    <path class="cls-3" d="M175.42,32.05c.83,3.51,8.13,10.01,6.45,23.56-.18,1.44-.57,3.14-.7,4.34-.23,2.13.66,1.62,1.66.54,1.53-1.76,2.71-5.16,3.33-7.36,1.15-4.04,1.5-7.75,1.24-11.89-.17-2.64-1.06-7.2-2.42-9.2-1.81-2.65-7.73-1.53-9.57,0"/>
    <path class="cls-3" d="M187.23,60.96c4.07-1.07,9.36-6.21,10.16-12.87.81-6.56-3.13-14.95-9.08-15.63.1,1.83,1.03,4.69,1.38,6.9,1.46,8.9-1.1,14.11-3.64,20.17-.85,2-.99,1.93,1.19,1.43"/>
    <path class="cls-3" d="M175.14,60.2c.78-5.1-4.92-17.13-8.31-18.3-2.5,8.08,2.82,16.63,8.31,18.3"/>
    <path class="cls-3" d="M167.95,38.94c0,.11,2.3,2.45,2.44,2.6,1.94,2.1,3.27,4.15,4.25,6.26,1.65,3.53,2.34,7.24,3.31,11.64.2.89.32,1.81.79,1.78.49.12.82-5.01.85-5.62.47-8.36-2.11-18.15-6.85-22.05-2.05,1.15-4.74,4.15-4.8,5.38"/>
    <path class="cls-4" d="M53.48,24.99v.96c-.4,0-.8.16-1.05.4-.32.32-.64.64-.88,1.04l-15.42,21.77v15.66c0,.4.16.64.4.88.24.24.8.48,1.85.56v.96s-16.55,0-16.55,0v-.96c1.05-.08,1.69-.32,1.93-.56.24-.24.32-.48.32-.88v-14.14s-15.34-22.01-15.34-22.01c-.88-1.2-1.45-2.01-1.69-2.33-.24-.24-.56-.4-.96-.4v-.96s17.67,0,17.67,0v.96c-.48,0-.96.08-1.37.16-.4.08-.64.4-.64.8,0,.24.32.88,1.04,1.93.72,1.05,1.53,2.33,2.49,3.69.88,1.37,1.85,2.81,2.89,4.26,1.04,1.45,1.85,2.65,2.49,3.69.16-.24.48-.8,1.04-1.53.56-.72,1.13-1.53,1.85-2.49.64-.96,1.36-2.01,2.17-3.05.72-1.04,1.45-2.09,2.09-2.97.56-.88,1.12-1.69,1.53-2.41.4-.64.64-1.04.64-1.12,0-.4-.16-.72-.56-.8-.4-.08-.8-.16-1.2-.16v-.96s15.26,0,15.26,0Z"/>
    <path class="cls-4" d="M83.51,51.66l-7.79-19.12-7.15,19.12h14.94ZM63.99,65.48c0,.24.08.48.32.56.16.16.56.24,1.12.24v.96s-14.22,0-14.22,0v-.96c.56-.08,1.05-.32,1.29-.56.24-.24.56-.64.8-1.29.08-.24.4-.96.8-2.17.4-1.2.96-2.65,1.69-4.5.72-1.77,1.45-3.77,2.33-5.95.88-2.17,1.69-4.42,2.57-6.75.88-2.25,1.69-4.5,2.57-6.67.8-2.17,1.53-4.1,2.17-5.78.64-1.69,1.2-3.13,1.61-4.18.4-1.04.56-1.61.56-1.69,0-.24-.16-.48-.48-.56-.4-.08-.72-.16-1.12-.24v-.96s20.97,0,20.97,0v.96c-.4.08-.8.16-1.04.24-.24.08-.4.4-.4.8,0,.08.24.8.8,2.09.48,1.28,1.13,2.97,1.93,4.98.8,2.09,1.77,4.42,2.81,6.99,1.04,2.65,2.09,5.3,3.21,7.95,1.13,2.73,2.25,5.38,3.29,7.95,1.04,2.57,1.93,4.9,2.81,6.91.4.96.8,1.61,1.13,1.93.24.32.64.48,1.12.48v.96s-15.82,0-15.82,0v-.96c1.04-.08,1.53-.4,1.53-.96,0-.08-.16-.4-.4-1.13-.24-.64-.56-1.36-.88-2.25-.32-.8-.64-1.61-.88-2.33-.32-.72-.48-1.28-.56-1.53h-19.04c-.56,1.45-.96,2.65-1.28,3.53-.32.88-.56,1.61-.72,2.17-.24.56-.32.88-.4,1.12-.08.24-.16.48-.16.56Z"/>
    <path class="cls-4" d="M122.24,64.84c0,.4.16.64.4.88.24.24.8.48,1.85.56v.96s-16.55,0-16.55,0v-.96c1.05-.08,1.69-.32,1.93-.56.24-.24.32-.48.32-.88V27.4c0-.4-.08-.72-.32-.96-.24-.24-.88-.4-1.93-.48v-.96s28.76,0,28.76,0c2.49,0,4.74.32,6.67,1.05,1.93.72,3.53,1.77,4.82,2.97,1.29,1.2,2.25,2.65,2.89,4.26.64,1.69.96,3.37.96,5.14,0,1.77-.32,3.45-.96,5.06-.64,1.69-1.61,3.05-2.89,4.26-1.28,1.21-2.89,2.17-4.82,2.89-1.93.72-4.18,1.12-6.67,1.12h-14.46s0,13.09,0,13.09ZM134.45,43.23c2.25,0,3.94-.4,4.98-1.12,1.04-.72,1.53-2.01,1.53-3.7,0-1.52-.48-2.65-1.53-3.37-1.04-.72-2.73-1.04-4.98-1.04h-12.21s0,9.24,0,9.24h12.21Z"/>
    <path class="cls-4" d="M217.7,50.94c-.08.32-.16.88-.16,1.69,0,.56.48,1.13,1.53,1.77.96.72,2.25,1.37,3.86,1.93,1.53.56,3.37,1.04,5.38,1.45,2.01.4,4.1.64,6.18.64,4.02,0,6.99-.48,8.84-1.45,1.85-.88,2.81-2.25,2.81-4.02,0-.96-.8-1.69-2.41-2.09-1.69-.4-3.7-.72-6.19-.96-2.49-.24-5.14-.48-7.95-.8-2.81-.24-5.46-.8-7.95-1.61-2.49-.72-4.5-1.85-6.1-3.37-1.69-1.45-2.49-3.45-2.49-6.02,0-2.01.48-3.86,1.45-5.54.88-1.69,2.25-3.05,3.94-4.26,1.69-1.2,3.7-2.09,6.1-2.81,2.41-.64,5.06-.96,8.03-.96,2.73,0,5.3.16,7.63.48,2.33.4,4.42.8,6.26,1.21,1.85.4,3.38.8,4.58,1.12,1.2.4,2.09.56,2.65.56s.96-.16,1.28-.4c.32-.24.64-.48.88-.8l.88.32-5.54,11.17-.96-.48v-.88c0-.48-.48-.96-1.53-1.53-1.04-.48-2.41-.96-4.02-1.37-1.61-.4-3.37-.72-5.38-.96-2.01-.24-3.94-.4-5.78-.4-3.45,0-5.94.4-7.31,1.21-1.37.8-2.09,1.69-2.09,2.57,0,.88.48,1.61,1.45,2.01.96.48,2.25.8,3.78,1.04,1.53.24,3.29.4,5.3.48,2.01.16,4.02.4,6.11.64,2.09.24,4.1.64,6.1,1.12,2.01.48,3.77,1.21,5.3,2.09,1.53.96,2.81,2.17,3.77,3.69.96,1.53,1.45,3.45,1.45,5.78,0,1.77-.32,3.53-1.04,5.22-.72,1.69-2.01,3.21-3.69,4.58-1.77,1.37-4.1,2.49-6.99,3.3-2.97.8-6.59,1.2-10.92,1.2-3.37,0-6.27-.16-8.67-.48-2.49-.32-4.58-.72-6.27-1.2-1.69-.4-3.05-.8-4.02-1.21-1.04-.4-1.77-.56-2.25-.56-.32,0-.56.08-.8.32-.24.24-.56.48-.8.72l-.96-.24,5.95-14.3.8.4Z"/>
    <path class="cls-4" d="M309.46,64.84c0,.4.16.64.4.88.24.24.8.48,1.85.56v.96s-16.55,0-16.55,0v-.96c1.05-.08,1.69-.32,1.93-.56.24-.24.32-.48.32-.88v-14.86s-20.88,0-20.88,0v14.86c0,.4.16.64.4.88.24.24.8.48,1.85.56v.96s-16.55,0-16.55,0v-.96c1.04-.08,1.69-.32,1.93-.56.24-.24.32-.48.32-.88V27.41c0-.4-.08-.72-.32-.96-.24-.24-.88-.4-1.93-.48v-.96s16.55,0,16.55,0v.96c-1.04.08-1.61.24-1.85.48-.24.24-.4.56-.4.96v12.77s20.88,0,20.88,0v-12.77c0-.4-.08-.72-.32-.96-.24-.24-.88-.4-1.93-.48v-.96s16.55,0,16.55,0v.96c-1.04.08-1.61.24-1.85.48-.24.24-.4.56-.4.96v37.43Z"/>
    <path class="cls-4" d="M349.39,66.28c.48,0,.88-.08,1.13-.16.24-.08.4-.32.4-.88,0-.16-.24-.64-.72-1.45-.48-.8-1.12-1.77-1.85-2.97-.72-1.2-1.61-2.41-2.49-3.77-.88-1.37-1.77-2.65-2.57-3.86-.8-1.2-1.53-2.33-2.17-3.21-.64-.88-1.04-1.53-1.29-1.85l-7.87,7.07v9.64c0,.4.16.64.4.88.24.24.8.48,1.85.56v.96s-16.55,0-16.55,0v-.96c1.04-.08,1.69-.32,1.93-.56.24-.24.32-.48.32-.88V27.4c0-.4-.08-.72-.32-.96-.24-.24-.88-.4-1.93-.48v-.97s16.55,0,16.55,0v.97c-1.04.08-1.61.24-1.85.48-.24.24-.4.56-.4.96v14.46h.56c1.61-1.53,3.37-3.13,5.22-4.82,1.85-1.69,3.53-3.21,5.06-4.66,1.53-1.37,2.89-2.57,3.94-3.62,1.04-.96,1.53-1.53,1.53-1.77,0-.48-.16-.8-.4-.88-.24-.08-.64-.08-1.04-.16v-.97s20.4,0,20.4,0v.97c-.56.08-.96.16-1.29.24-.4.08-.72.24-.96.48-.32.24-.64.48-.96.72-.4.32-.8.72-1.28,1.12l-13.9,11.97,16.39,24.5c.4.64.8,1.04,1.2,1.13.4.08.8.16,1.37.16v.96s-18.39,0-18.39,0v-.96Z"/>
    <path class="cls-4" d="M373.61,66.28c1.04-.08,1.69-.32,1.93-.56.24-.24.32-.48.32-.88V27.4c0-.4-.08-.72-.32-.96-.24-.24-.88-.4-1.93-.48v-.97s16.55,0,16.55,0v.97c-1.04.08-1.61.24-1.85.48-.24.24-.4.56-.4.96v37.43c0,.4.16.64.4.88.24.24.8.48,1.85.56v.96s-16.55,0-16.55,0v-.96Z"/>
    <path class="cls-4" d="M399.16,27.4c0-.4-.08-.72-.32-.96s-.88-.4-1.93-.48v-.96s19.36,0,19.36,0v.96c-.88.08-1.53.16-1.77.32-.32.24-.48.48-.48.72,0,.08.32.56,1.04,1.45.72.88,1.61,1.93,2.73,3.21,1.12,1.29,2.41,2.73,3.86,4.26,1.37,1.61,2.81,3.21,4.26,4.74,1.45,1.61,2.81,3.13,4.18,4.5,1.36,1.45,2.49,2.65,3.45,3.69v-21.45c0-.88-.56-1.36-1.69-1.45v-.96s14.7,0,14.7,0v.96c-1.04.08-1.61.24-1.85.48-.24.24-.4.56-.4.96v37.43c0,.4.16.64.4.88.24.24.8.48,1.85.56v.96s-15.26,0-15.26,0v-.96c.72,0,1.28-.08,1.53-.24.24-.16.32-.4.32-.64,0-.16-.08-.4-.24-.64-.16-.24-.48-.64-1.04-1.2-.56-.56-1.28-1.45-2.33-2.57-1.04-1.04-2.49-2.57-4.18-4.42-1.69-1.85-3.86-4.1-6.35-6.91-2.49-2.73-5.54-6.1-9.08-10.04v25.22c0,.4.16.64.4.88.24.24.8.48,1.85.56v.96s-15.26,0-15.26,0v-.96c1.04-.08,1.69-.32,1.93-.56.24-.24.32-.48.32-.88V27.4Z"/>
    <path class="cls-4" d="M493.17,64.84c0,.4.16.64.4.88.24.24.8.48,1.85.56v.96s-16.55,0-16.55,0v-.96c1.04-.08,1.69-.32,1.93-.56.24-.24.32-.48.32-.88V27.4c0-.4-.08-.72-.32-.96-.24-.24-.88-.4-1.93-.48v-.97s29.4,0,29.4,0c5.94,0,10.28,1.05,12.93,3.21,2.65,2.17,4.02,5.54,4.02,10.12,0,3.69-1.04,6.58-3.21,8.67-2.17,2.09-4.98,3.62-8.27,4.5l9.48,13.33c.64.96,1.45,1.45,2.33,1.45v.96s-16.71,0-16.71,0v-.96c1.2-.08,1.77-.56,1.77-1.45,0-.08-.24-.48-.64-1.12-.4-.64-.96-1.45-1.61-2.33-.64-.88-1.36-1.93-2.09-2.97-.8-1.04-1.52-2.01-2.25-2.97-.72-.96-1.36-1.85-1.93-2.57-.56-.72-.88-1.28-1.04-1.52h-7.87s0,13.49,0,13.49ZM506.67,42.83c2.33,0,4.02-.48,4.9-1.37.88-.88,1.28-1.85,1.28-3.05,0-1.2-.4-2.25-1.28-3.13-.88-.88-2.57-1.29-4.9-1.29h-13.49s0,8.84,0,8.84h13.49Z"/>
    <path class="cls-4" d="M554.37,34.31c-1.77,0-3.45.24-4.98.8-1.61.56-2.97,1.28-4.18,2.25-1.21,1.05-2.17,2.25-2.89,3.69-.72,1.52-1.12,3.21-1.12,5.06s.4,3.53,1.12,4.98c.72,1.53,1.69,2.73,2.89,3.7,1.2,1.04,2.57,1.77,4.18,2.33,1.53.56,3.21.8,4.98.8,1.77,0,3.46-.24,5.06-.8,1.53-.56,2.97-1.28,4.18-2.33,1.21-.96,2.17-2.17,2.89-3.7.72-1.45,1.04-3.13,1.04-4.98,0-1.85-.32-3.54-1.04-5.06-.72-1.45-1.69-2.65-2.89-3.69-1.2-.96-2.65-1.69-4.18-2.25-1.61-.56-3.29-.8-5.06-.8M554.37,24.51c3.46,0,6.67.48,9.72,1.37,2.97.96,5.62,2.33,7.95,4.18,2.25,1.85,4.02,4.1,5.38,6.75,1.36,2.65,2.01,5.78,2.01,9.32,0,3.53-.64,6.67-2.01,9.32-1.37,2.65-3.13,4.9-5.38,6.75-2.33,1.85-4.98,3.13-7.95,4.02-3.05.88-6.26,1.28-9.72,1.28-3.45,0-6.67-.4-9.64-1.28-3.05-.88-5.7-2.17-7.95-4.02-2.33-1.85-4.1-4.1-5.46-6.75-1.37-2.65-2.01-5.78-2.01-9.32,0-3.54.64-6.67,2.01-9.32,1.36-2.65,3.13-4.9,5.46-6.75,2.25-1.85,4.9-3.21,7.95-4.18,2.97-.88,6.18-1.37,9.64-1.37Z"/>
    <path class="cls-4" d="M624.74,57.45c.4,0,.72-.16.96-.48.24-.24.4-.88.48-1.77h.96s0,13.9,0,13.9h-.96c-.08-.88-.24-1.36-.48-1.53-.24-.24-.56-.32-.96-.32h-41.93s0-.96,0-.96c1.04-.08,1.69-.32,1.93-.56.24-.24.32-.48.32-.88V27.41c0-.4-.08-.72-.32-.96-.24-.24-.88-.4-1.93-.48v-.96s16.55,0,16.55,0v.96c-1.05.08-1.61.24-1.85.48-.24.24-.4.56-.4.96v30.04s27.63,0,27.63,0Z"/>
    <path class="cls-4" d="M672.29,57.45c.4,0,.72-.16.96-.48.24-.24.4-.88.48-1.77h.96s0,13.9,0,13.9h-.96c-.08-.88-.24-1.36-.48-1.53-.24-.24-.56-.32-.96-.32h-41.93s0-.96,0-.96c1.04-.08,1.69-.32,1.93-.56.24-.24.32-.48.32-.88V27.41c0-.4-.08-.72-.32-.96-.24-.24-.88-.4-1.93-.48v-.96s16.55,0,16.55,0v.96c-1.04.08-1.61.24-1.85.48-.24.24-.4.56-.4.96v30.04s27.63,0,27.63,0Z"/>
    <path class="cls-4" d="M685.57,50.94c-.08.32-.16.88-.16,1.69,0,.56.48,1.13,1.53,1.77.96.72,2.25,1.37,3.86,1.93,1.53.56,3.37,1.04,5.38,1.45,2.01.4,4.1.64,6.19.64,4.02,0,6.99-.48,8.83-1.45,1.85-.88,2.81-2.25,2.81-4.02,0-.96-.8-1.69-2.41-2.09-1.69-.4-3.7-.72-6.18-.96-2.49-.24-5.14-.48-7.95-.8-2.81-.24-5.46-.8-7.95-1.61-2.49-.72-4.5-1.85-6.1-3.37-1.69-1.45-2.49-3.45-2.49-6.02,0-2.01.48-3.86,1.45-5.54.88-1.69,2.25-3.05,3.94-4.26,1.69-1.2,3.7-2.09,6.11-2.81,2.41-.64,5.06-.96,8.03-.96,2.73,0,5.3.16,7.63.48,2.33.4,4.42.8,6.27,1.21,1.85.4,3.37.8,4.58,1.12,1.2.4,2.09.56,2.65.56.56,0,.96-.16,1.29-.4.32-.24.64-.48.88-.8l.88.32-5.54,11.17-.96-.48v-.88c0-.48-.48-.96-1.53-1.53-1.04-.48-2.41-.96-4.02-1.37-1.61-.4-3.37-.72-5.38-.96-2.01-.24-3.93-.4-5.78-.4-3.45,0-5.94.4-7.31,1.21-1.37.8-2.09,1.69-2.09,2.57,0,.88.48,1.61,1.45,2.01.96.48,2.25.8,3.77,1.04,1.53.24,3.29.4,5.3.48,2.01.16,4.02.4,6.1.64,2.09.24,4.1.64,6.1,1.12,2.01.48,3.78,1.21,5.3,2.09,1.53.96,2.81,2.17,3.77,3.69.96,1.53,1.45,3.45,1.45,5.78,0,1.77-.32,3.53-1.04,5.22-.72,1.69-2.01,3.21-3.69,4.58-1.77,1.37-4.1,2.49-6.99,3.3-2.97.8-6.59,1.2-10.92,1.2-3.37,0-6.27-.16-8.67-.48-2.49-.32-4.58-.72-6.27-1.2-1.68-.4-3.05-.8-4.02-1.21-1.05-.4-1.77-.56-2.25-.56-.32,0-.56.08-.8.32-.24.24-.56.48-.8.72l-.97-.24,5.95-14.3.8.4Z"/>
    <path class="cls-2" d="M195.48,66.79c2.41-1.94,4.14-3.13,6.39-6.42,12.07-17.43-1.41-38.92-19.74-38.93-5.87-.03-11.44,1.87-15.67,5.38-.82-.64-4.33-6.07-7.91-11.5-2.39-3.62-4.83-7.31-6.52-9.62-1.19-1.62-2.81-3.06-4.52-1.76-1.82,1.37-.42,3.4.52,4.77,1.69,2.58,4.68,6.35,7.11,9.35,1.14,1.42,8.66,10.48,8.68,10.92-.34.38-.93,1.06-1.28,1.54l-9.57-10.47c-.91-.98-4.6-5.63-7-8.04-3.18-3.16-5.54,0-3.1,2.86,2.14,2.41,4.77,4.99,7.09,7.19,1.84,1.74,9.61,9.37,10.49,11.07-2.83,4.85-3.57,10.47-3.07,15.44.63,6.27,3.88,12.25,8.4,16.05,3.07,2.54,5.96,3.65,6.79,4.35,2.76,2.31-2.18,11.65-10.47,8.02-9.72-4.23-5.28-18.72-14.8-4.53-1.09,1.65-8.02,9.96-2.81,10.2,1.99.11,6.55-7.12,7.42-8.9,1.78.85,3.28,4.05,5.92,5.85,2.38,1.66,5.72,2.8,9.14,2.57,6.33-.44,9.39-5.15,11.05-11.48,2.44.38,7.34.27,9.75-.73,2.66-.68,3.61-.88,4.48-.2,3.99,2.89,5.91,9.93,7.26,14.71.7,2.37,2.39,4.09,4,1.4.25-.41.51-.96.91-1.58,4.22-6.68,8.62-8.24,9.81-9.88-3.93-4.56-8.08.75-11.7,4.96-.83-2.63-4.92-10.41-7.06-12.6M173.95,38.51l-5.66-8.45c5.29-5.79,19.24-8.16,28.96,1.63,6.89,6.98,8.35,20.51-.2,29.07-7.07,7.06-20.05,9.59-29.24.96-3.24-3.03-6.14-7.09-6.84-13.18-.83-7.26,1.53-11.77,4.17-15.34.21-.28.76-.91.99-1.22l6.2,7.93c1.69,2.17,3.35,1.08,1.62-1.4Z"/>
  </g>
</svg>