<?xml version="1.0" encoding="UTF-8"?><svg id="_лой_2" xmlns="http://www.w3.org/2000/svg" viewBox="0 0 1866.88 218.75"><defs><style>.cls-1,.cls-2{fill:#fff;}.cls-2{fill-rule:evenodd;}</style></defs><g id="_лой_1-2"><g><g><path class="cls-1" d="M1262.36,160.23c0,1.04,.42,1.67,1.05,2.3,.63,.63,2.09,1.26,4.81,1.47v2.51h-43.1v-2.51c2.72-.21,4.4-.84,5.02-1.47,.63-.63,.84-1.26,.84-2.3V62.73c0-1.05-.21-1.88-.84-2.51-.62-.63-2.3-1.05-5.02-1.26v-2.51h76.59c15.48,0,26.78,2.72,33.68,8.37,6.91,5.65,10.46,14.44,10.46,26.36,0,9.62-2.72,17.15-8.37,22.6-5.65,5.44-12.97,9.42-21.55,11.72l24.69,34.73c1.67,2.51,3.77,3.77,6.07,3.77v2.51h-43.52v-2.51c3.14-.21,4.6-1.47,4.6-3.77,0-.21-.63-1.26-1.68-2.93-1.04-1.67-2.51-3.76-4.18-6.07-1.67-2.3-3.56-5.02-5.44-7.74-2.09-2.72-3.97-5.23-5.86-7.74-1.88-2.51-3.56-4.81-5.02-6.69-1.47-1.88-2.31-3.35-2.72-3.97h-20.51v35.15Zm35.15-57.33c6.07,0,10.46-1.26,12.76-3.56,2.3-2.31,3.35-4.81,3.35-7.95s-1.05-5.86-3.35-8.16c-2.3-2.3-6.69-3.35-12.76-3.35h-35.15v23.02h35.15Z"/><path class="cls-1" d="M1421.75,80.72c-4.6,0-9,.62-12.97,2.09-4.19,1.46-7.74,3.35-10.88,5.86-3.14,2.72-5.65,5.85-7.53,9.62-1.88,3.97-2.93,8.37-2.93,13.18s1.04,9.21,2.93,12.97c1.89,3.97,4.39,7.11,7.53,9.62,3.14,2.72,6.69,4.6,10.88,6.07,3.97,1.46,8.37,2.09,12.97,2.09s9-.63,13.18-2.09c3.98-1.47,7.74-3.35,10.88-6.07,3.14-2.51,5.65-5.65,7.54-9.62,1.88-3.76,2.72-8.16,2.72-12.97s-.83-9.21-2.72-13.18c-1.89-3.77-4.4-6.9-7.54-9.62-3.14-2.51-6.9-4.4-10.88-5.86-4.18-1.47-8.58-2.09-13.18-2.09m0-25.53c9,0,17.37,1.26,25.32,3.56,7.74,2.51,14.65,6.07,20.71,10.88,5.86,4.81,10.46,10.67,14.02,17.58,3.56,6.91,5.23,15.06,5.23,24.27s-1.68,17.37-5.23,24.27c-3.56,6.9-8.16,12.76-14.02,17.58-6.07,4.81-12.97,8.16-20.71,10.46-7.95,2.31-16.32,3.35-25.32,3.35s-17.37-1.04-25.11-3.35c-7.95-2.3-14.86-5.65-20.72-10.46-6.07-4.81-10.67-10.67-14.23-17.58-3.56-6.9-5.23-15.06-5.23-24.27s1.68-17.37,5.23-24.27c3.55-6.9,8.16-12.76,14.23-17.58,5.85-4.81,12.76-8.37,20.72-10.88,7.74-2.3,16.11-3.56,25.11-3.56Z"/><path class="cls-1" d="M1605.07,140.98c1.04,0,1.88-.42,2.51-1.26,.63-.62,1.05-2.3,1.26-4.6h2.51v36.2h-2.51c-.21-2.3-.63-3.56-1.26-3.98-.63-.63-1.47-.83-2.51-.83h-109.22v-2.51c2.72-.21,4.4-.83,5.02-1.47,.63-.63,.84-1.25,.84-2.3V62.73c0-1.05-.21-1.89-.84-2.51-.63-.63-2.3-1.05-5.02-1.26v-2.51h43.11v2.51c-2.72,.21-4.19,.63-4.81,1.26-.63,.63-1.05,1.46-1.05,2.51v78.25h71.98Z"/><path class="cls-1" d="M1728.92,140.98c1.05,0,1.88-.42,2.51-1.26,.63-.62,1.04-2.3,1.25-4.6h2.51v36.2h-2.51c-.21-2.3-.63-3.56-1.25-3.98-.63-.63-1.46-.83-2.51-.83h-109.22v-2.51c2.72-.21,4.4-.83,5.02-1.47,.63-.63,.84-1.25,.84-2.3V62.73c0-1.05-.21-1.89-.84-2.51-.63-.63-2.3-1.05-5.02-1.26v-2.51h43.11v2.51c-2.72,.21-4.18,.63-4.81,1.26-.63,.63-1.05,1.46-1.05,2.51v78.25h71.98Z"/><path class="cls-1" d="M1763.52,124.03c-.21,.84-.42,2.3-.42,4.39,0,1.46,1.26,2.93,3.97,4.6,2.51,1.89,5.86,3.56,10.04,5.03,3.98,1.47,8.79,2.72,14.02,3.77,5.23,1.05,10.67,1.67,16.11,1.67,10.46,0,18.2-1.26,23.01-3.76,4.82-2.3,7.33-5.86,7.33-10.46,0-2.51-2.09-4.39-6.28-5.44-4.39-1.05-9.62-1.88-16.11-2.51-6.49-.63-13.39-1.26-20.71-2.09-7.32-.62-14.23-2.09-20.72-4.18-6.49-1.89-11.72-4.82-15.9-8.79-4.39-3.76-6.49-9-6.49-15.69,0-5.23,1.25-10.04,3.77-14.44,2.3-4.39,5.86-7.95,10.25-11.09,4.4-3.14,9.63-5.44,15.91-7.32,6.28-1.67,13.18-2.51,20.92-2.51,7.11,0,13.81,.42,19.88,1.25,6.07,1.05,11.51,2.09,16.32,3.14,4.81,1.05,8.79,2.09,11.93,2.93,3.14,1.04,5.44,1.46,6.9,1.46s2.51-.42,3.35-1.05c.84-.63,1.67-1.26,2.3-2.09l2.3,.83-14.44,29.08-2.51-1.25v-2.3c0-1.26-1.25-2.51-3.97-3.97-2.71-1.26-6.28-2.52-10.46-3.56-4.18-1.05-8.79-1.89-14.01-2.51-5.23-.63-10.25-1.05-15.06-1.05-9,0-15.49,1.05-19.04,3.14-3.56,2.09-5.44,4.4-5.44,6.7s1.26,4.19,3.77,5.23c2.51,1.25,5.86,2.09,9.83,2.72,3.97,.63,8.58,1.05,13.81,1.26,5.23,.42,10.46,1.05,15.9,1.67,5.44,.63,10.68,1.67,15.9,2.93,5.23,1.26,9.83,3.14,13.81,5.44,3.97,2.51,7.32,5.65,9.83,9.62,2.51,3.98,3.77,9,3.77,15.07,0,4.61-.83,9.21-2.72,13.6-1.88,4.4-5.23,8.37-9.62,11.93-4.61,3.56-10.67,6.49-18.21,8.58-7.74,2.09-17.15,3.14-28.46,3.14-8.79,0-16.32-.42-22.59-1.26-6.49-.84-11.93-1.88-16.33-3.14-4.39-1.05-7.95-2.09-10.46-3.14-2.72-1.05-4.6-1.47-5.86-1.47-.83,0-1.46,.21-2.09,.84-.63,.63-1.46,1.25-2.09,1.88l-2.51-.63,15.49-37.24,2.09,1.05Z"/></g><g><path class="cls-2" d="M441.94,74.65c2.18,9.16,21.21,26.13,16.83,61.49-.47,3.76-1.49,8.19-1.83,11.31-.6,5.55,1.72,4.22,4.34,1.41,4-4.6,7.08-13.48,8.7-19.2,3-10.54,3.92-20.23,3.24-31.02-.44-6.88-2.78-18.8-6.31-24-4.73-6.92-20.18-3.99-24.98,.02"/><path class="cls-2" d="M472.78,150.11c10.61-2.8,24.42-16.2,26.51-33.6,2.13-17.11-8.18-39.03-23.71-40.79,.27,4.78,2.7,12.24,3.59,18.02,3.81,23.23-2.88,36.82-9.49,52.65-2.22,5.23-2.6,5.04,3.1,3.72"/><path class="cls-2" d="M441.22,148.12c2.04-13.31-12.84-44.72-21.7-47.77-6.52,21.09,7.37,43.4,21.7,47.77"/><path class="cls-2" d="M422.45,92.62c-.01,.28,6.01,6.39,6.38,6.79,5.06,5.47,8.53,10.82,11.1,16.34,4.3,9.21,6.1,18.9,8.63,30.39,.51,2.32,.84,4.73,2.07,4.66,1.27,.3,2.14-13.08,2.23-14.67,1.24-21.81-5.52-47.37-17.87-57.56-5.34,3-12.37,10.84-12.54,14.05"/><path class="cls-1" d="M123.69,56.24v2.52c-1.05,0-2.1,.42-2.73,1.04-.84,.84-1.68,1.68-2.3,2.73l-40.25,56.82v40.88c0,1.05,.42,1.68,1.04,2.31,.63,.63,2.1,1.26,4.82,1.47v2.51H41.09v-2.51c2.73-.21,4.4-.84,5.03-1.47,.63-.63,.84-1.26,.84-2.31v-36.89L6.92,65.88c-2.31-3.15-3.78-5.24-4.4-6.08-.63-.63-1.47-1.04-2.51-1.04v-2.52H46.12v2.52c-1.26,0-2.52,.21-3.56,.42-1.05,.21-1.68,1.04-1.68,2.1,0,.63,.84,2.31,2.72,5.03,1.89,2.73,3.99,6.08,6.5,9.64,2.31,3.56,4.82,7.34,7.55,11.11,2.73,3.78,4.82,6.92,6.5,9.64,.42-.63,1.26-2.1,2.73-3.98,1.47-1.89,2.93-3.99,4.82-6.5,1.68-2.52,3.56-5.25,5.66-7.97,1.89-2.73,3.78-5.46,5.45-7.76,1.46-2.31,2.93-4.4,3.98-6.29,1.05-1.68,1.68-2.73,1.68-2.93,0-1.05-.42-1.89-1.47-2.1-1.05-.21-2.1-.42-3.15-.42v-2.52h39.84Z"/><path class="cls-1" d="M202.06,125.84l-20.33-49.9-18.66,49.9h38.99Zm-50.94,36.06c0,.63,.21,1.26,.84,1.47,.42,.42,1.46,.63,2.93,.63v2.52h-37.11v-2.52c1.47-.21,2.73-.84,3.35-1.47,.63-.63,1.47-1.67,2.1-3.35,.21-.63,1.04-2.51,2.1-5.66,1.05-3.14,2.52-6.91,4.4-11.74,1.89-4.61,3.77-9.85,6.08-15.52,2.31-5.66,4.4-11.53,6.71-17.61,2.3-5.87,4.4-11.74,6.71-17.4,2.1-5.66,3.98-10.69,5.66-15.09,1.68-4.4,3.14-8.18,4.19-10.9,1.05-2.72,1.47-4.19,1.47-4.4,0-.63-.42-1.25-1.26-1.46-1.05-.21-1.89-.42-2.93-.63v-2.51h54.72v2.51c-1.05,.21-2.09,.42-2.72,.63-.63,.21-1.05,1.05-1.05,2.1,0,.21,.63,2.09,2.09,5.45,1.26,3.36,2.94,7.76,5.03,13,2.09,5.45,4.61,11.53,7.34,18.24,2.72,6.92,5.45,13.84,8.38,20.76,2.93,7.13,5.87,14.04,8.59,20.75,2.73,6.71,5.03,12.79,7.34,18.03,1.04,2.52,2.09,4.19,2.94,5.03,.63,.84,1.68,1.26,2.93,1.26v2.52h-41.3v-2.52c2.73-.21,3.98-1.05,3.98-2.51,0-.21-.42-1.05-1.04-2.93-.63-1.68-1.47-3.56-2.31-5.87-.84-2.1-1.68-4.19-2.3-6.07-.84-1.89-1.26-3.36-1.47-3.99h-49.69c-1.47,3.77-2.51,6.92-3.35,9.23-.84,2.3-1.47,4.19-1.88,5.66-.63,1.47-.84,2.31-1.05,2.94-.21,.63-.42,1.26-.42,1.47Z"/><path class="cls-1" d="M303.16,160.22c0,1.04,.42,1.68,1.05,2.3,.63,.63,2.09,1.26,4.82,1.47v2.52h-43.19v-2.52c2.73-.21,4.4-.84,5.03-1.47,.63-.63,.84-1.26,.84-2.3V62.52c0-1.04-.21-1.89-.84-2.51-.63-.63-2.31-1.05-5.03-1.26v-2.52h75.06c6.5,0,12.37,.84,17.4,2.73,5.03,1.88,9.22,4.61,12.57,7.76,3.36,3.14,5.87,6.92,7.55,11.11,1.68,4.4,2.51,8.8,2.51,13.42s-.84,9.02-2.51,13.21c-1.68,4.4-4.19,7.97-7.55,11.11-3.35,3.15-7.54,5.66-12.57,7.55-5.03,1.89-10.9,2.94-17.4,2.94h-37.74v34.17Zm31.87-56.4c5.87,0,10.27-1.05,13-2.93,2.72-1.89,3.98-5.24,3.98-9.65,0-3.98-1.26-6.92-3.98-8.8-2.72-1.89-7.13-2.73-13-2.73h-31.87v24.11h31.87Z"/><path class="cls-1" d="M552.31,123.95c-.21,.84-.42,2.3-.42,4.4,0,1.47,1.26,2.94,3.98,4.61,2.52,1.89,5.87,3.57,10.06,5.04,3.99,1.47,8.81,2.72,14.05,3.77,5.24,1.05,10.69,1.68,16.14,1.68,10.49,0,18.24-1.26,23.06-3.77,4.82-2.31,7.34-5.87,7.34-10.49,0-2.51-2.09-4.4-6.29-5.45-4.4-1.05-9.64-1.89-16.14-2.52-6.5-.63-13.42-1.26-20.76-2.1-7.33-.63-14.26-2.09-20.76-4.19-6.5-1.89-11.74-4.83-15.93-8.81-4.4-3.77-6.5-9.02-6.5-15.73,0-5.24,1.25-10.06,3.77-14.47,2.3-4.4,5.87-7.97,10.27-11.11,4.4-3.14,9.64-5.45,15.93-7.33,6.29-1.68,13.21-2.52,20.96-2.52,7.13,0,13.84,.42,19.92,1.26,6.08,1.05,11.53,2.1,16.35,3.15,4.83,1.05,8.81,2.09,11.95,2.94,3.15,1.04,5.45,1.47,6.92,1.47s2.52-.42,3.35-1.05c.84-.63,1.68-1.26,2.31-2.1l2.31,.84-14.47,29.14-2.52-1.26v-2.31c0-1.26-1.26-2.52-3.98-3.98-2.72-1.26-6.29-2.52-10.48-3.56-4.2-1.05-8.81-1.89-14.05-2.52-5.24-.63-10.27-1.05-15.09-1.05-9.02,0-15.52,1.05-19.08,3.15-3.56,2.1-5.46,4.4-5.46,6.71s1.26,4.19,3.78,5.24c2.51,1.25,5.87,2.1,9.85,2.72,3.99,.63,8.59,1.05,13.84,1.26,5.24,.42,10.48,1.05,15.93,1.68,5.45,.63,10.69,1.68,15.93,2.93,5.24,1.26,9.85,3.15,13.84,5.45,3.98,2.52,7.33,5.66,9.85,9.64,2.51,3.99,3.77,9.02,3.77,15.1,0,4.61-.84,9.22-2.73,13.63-1.89,4.4-5.24,8.38-9.64,11.95-4.61,3.57-10.69,6.5-18.24,8.6-7.76,2.09-17.19,3.14-28.51,3.14-8.8,0-16.35-.42-22.64-1.26-6.5-.84-11.95-1.88-16.35-3.14-4.4-1.05-7.97-2.1-10.49-3.15-2.73-1.05-4.61-1.47-5.87-1.47-.84,0-1.47,.21-2.1,.84-.63,.63-1.47,1.25-2.09,1.89l-2.52-.63,15.52-37.32,2.09,1.05Z"/><path class="cls-1" d="M791.81,160.22c0,1.05,.42,1.68,1.05,2.3,.63,.63,2.1,1.26,4.83,1.47v2.52h-43.19v-2.52c2.73-.21,4.4-.84,5.03-1.47,.63-.63,.84-1.25,.84-2.3v-38.79h-54.51v38.79c0,1.05,.42,1.68,1.05,2.3,.63,.63,2.1,1.26,4.82,1.47v2.52h-43.18v-2.52c2.72-.21,4.4-.84,5.03-1.47,.63-.63,.84-1.25,.84-2.3V62.53c0-1.05-.21-1.89-.84-2.52-.63-.63-2.31-1.05-5.03-1.26v-2.51h43.18v2.51c-2.72,.21-4.19,.63-4.82,1.26-.63,.63-1.05,1.47-1.05,2.52v33.33h54.51V62.53c0-1.05-.21-1.89-.84-2.52-.63-.63-2.31-1.05-5.03-1.26v-2.51h43.19v2.51c-2.73,.21-4.2,.63-4.83,1.26-.63,.63-1.05,1.47-1.05,2.52v97.69Z"/><path class="cls-1" d="M896.03,164c1.26,0,2.3-.21,2.94-.42,.63-.21,1.05-.84,1.05-2.31,0-.42-.63-1.68-1.89-3.77-1.26-2.1-2.93-4.61-4.82-7.76-1.89-3.15-4.19-6.29-6.5-9.85-2.3-3.56-4.61-6.92-6.71-10.06-2.09-3.15-3.98-6.08-5.66-8.38-1.68-2.31-2.73-3.99-3.35-4.82l-20.55,18.45v25.16c0,1.04,.42,1.68,1.05,2.3,.63,.63,2.1,1.26,4.82,1.47v2.52h-43.18v-2.52c2.72-.21,4.4-.84,5.03-1.47,.63-.63,.84-1.26,.84-2.3V62.52c0-1.05-.21-1.88-.84-2.51-.63-.63-2.31-1.05-5.03-1.26v-2.52h43.18v2.52c-2.72,.21-4.19,.63-4.82,1.26-.63,.63-1.05,1.46-1.05,2.51v37.74h1.47c4.19-3.99,8.8-8.18,13.63-12.58,4.82-4.4,9.22-8.38,13.21-12.16,3.99-3.56,7.55-6.71,10.28-9.43,2.72-2.51,3.98-3.98,3.98-4.61,0-1.26-.42-2.1-1.05-2.3-.63-.21-1.68-.21-2.72-.42v-2.52h53.25v2.52c-1.47,.21-2.52,.42-3.36,.63-1.05,.21-1.88,.63-2.52,1.26-.84,.63-1.68,1.26-2.52,1.88-1.05,.84-2.09,1.89-3.35,2.94l-36.27,31.24,42.77,63.94c1.04,1.68,2.1,2.73,3.14,2.94,1.05,.21,2.1,.42,3.56,.42v2.52h-48.01v-2.52Z"/><path class="cls-1" d="M959.23,164c2.72-.21,4.4-.84,5.03-1.47,.63-.63,.84-1.26,.84-2.3V62.52c0-1.05-.21-1.88-.84-2.51-.63-.63-2.31-1.05-5.03-1.26v-2.52h43.19v2.52c-2.73,.21-4.2,.63-4.82,1.26-.63,.63-1.05,1.46-1.05,2.51v97.7c0,1.04,.42,1.68,1.05,2.3,.63,.63,2.1,1.26,4.82,1.47v2.52h-43.19v-2.52Z"/><path class="cls-1" d="M1025.92,62.53c0-1.05-.21-1.89-.84-2.52-.63-.63-2.3-1.04-5.03-1.25v-2.52h50.53v2.52c-2.31,.21-3.99,.42-4.61,.84-.84,.63-1.26,1.26-1.26,1.89,0,.21,.84,1.47,2.73,3.78,1.89,2.31,4.19,5.03,7.13,8.38,2.93,3.36,6.29,7.13,10.06,11.11,3.56,4.19,7.34,8.39,11.11,12.37,3.78,4.19,7.34,8.18,10.9,11.74,3.56,3.77,6.5,6.92,9.01,9.65V62.53c0-2.31-1.47-3.56-4.4-3.77v-2.52h38.36v2.52c-2.72,.21-4.19,.63-4.82,1.25-.63,.63-1.05,1.47-1.05,2.52v97.69c0,1.05,.42,1.68,1.05,2.31,.63,.63,2.09,1.26,4.82,1.47v2.51h-39.83v-2.51c1.89,0,3.35-.21,3.98-.63,.63-.42,.84-1.05,.84-1.68,0-.42-.21-1.05-.63-1.68-.42-.63-1.26-1.68-2.73-3.14-1.47-1.47-3.35-3.77-6.08-6.71-2.73-2.73-6.5-6.71-10.9-11.53-4.4-4.82-10.06-10.69-16.56-18.03-6.5-7.13-14.47-15.93-23.69-26.2v65.83c0,1.05,.42,1.68,1.05,2.31,.63,.63,2.1,1.26,4.82,1.47v2.51h-39.84v-2.51c2.73-.21,4.4-.84,5.03-1.47,.63-.63,.84-1.26,.84-2.31V62.53Z"/><path class="cls-2" d="M494.32,165.33c6.3-5.07,10.8-8.18,16.69-16.75,31.51-45.51-3.69-101.58-51.52-101.6-15.32-.08-29.87,4.88-40.91,14.05-2.13-1.67-11.29-15.84-20.65-30.02-6.24-9.46-12.59-19.07-17.03-25.09-3.11-4.22-7.32-7.99-11.79-4.59-4.75,3.58-1.1,8.88,1.35,12.45,4.42,6.74,12.2,16.58,18.56,24.4,2.97,3.7,22.59,27.36,22.67,28.51-.9,.98-2.42,2.76-3.34,4.03l-24.98-27.33c-2.36-2.56-12.01-14.69-18.26-20.98-8.29-8.24-14.47,0-8.08,7.47,5.59,6.29,12.46,13.01,18.5,18.78,4.79,4.55,25.09,24.46,27.38,28.88-7.39,12.65-9.32,27.34-8.01,40.29,1.65,16.37,10.13,31.97,21.94,41.89,8,6.63,15.55,9.53,17.73,11.35,7.21,6.04-5.68,30.4-27.32,20.92-25.36-11.03-13.78-48.85-38.62-11.83-2.85,4.3-20.93,26-7.32,26.62,5.19,.28,17.08-18.58,19.38-23.22,4.65,2.23,8.56,10.57,15.45,15.28,6.2,4.34,14.93,7.31,23.85,6.7,16.51-1.16,24.52-13.45,28.83-29.97,6.37,.98,19.15,.72,25.45-1.91,6.93-1.77,9.43-2.28,11.69-.53,10.41,7.54,15.41,25.93,18.95,38.4,1.84,6.17,6.24,10.68,10.44,3.65,.64-1.08,1.33-2.52,2.36-4.13,11.01-17.44,22.49-21.52,25.6-25.78-10.27-11.91-21.09,1.95-30.54,12.94-2.16-6.86-12.84-27.16-18.43-32.88m-56.19-73.83l-14.78-22.04c13.8-15.12,50.22-21.31,75.58,4.26,17.97,18.22,21.79,53.53-.52,75.86-18.45,18.43-52.34,25.03-76.31,2.49-8.46-7.9-16.02-18.51-17.86-34.4-2.17-18.95,4-30.72,10.9-40.05,.54-.73,1.98-2.38,2.59-3.17l16.18,20.69c4.4,5.66,8.74,2.82,4.23-3.64Z"/></g></g></g></svg>